<svg width="174" height="55" viewBox="0 0 174 55" fill="none" xmlns="http://www.w3.org/2000/svg">
<path fill-rule="evenodd" clip-rule="evenodd" d="M76.7412 17.0848C75.0657 17.0848 73.077 17.44 70.9043 19.9581V12.911C70.9043 11.1308 69.4589 9.68262 67.682 9.68262C65.9051 9.68262 64.4597 11.1308 64.4597 12.911V35.8924C64.4597 37.6727 65.9051 39.1208 67.682 39.1208C69.4589 39.1208 70.9043 37.6727 70.9043 35.8924V26.9729C70.9043 24.4086 72.1196 22.9928 74.3337 22.9928C76.5019 22.9928 77.6435 24.3671 77.6435 26.9729V35.8924C77.6435 37.6727 79.0889 39.1208 80.8658 39.1208C82.6426 39.1208 84.0881 37.6727 84.0881 35.8924V25.1004C84.0835 20.0826 81.3399 17.0848 76.7412 17.0848ZM95.2468 17.2417C92.6229 17.2417 90.5422 17.583 88.503 18.3486C87.4442 18.7452 86.7353 19.7691 86.7353 20.8944C86.7353 22.3979 87.9276 23.574 89.4513 23.574C89.7643 23.574 90.0267 23.5278 90.3857 23.4079C91.624 23.0205 92.9313 22.8361 94.3906 22.8361C97.8522 22.8361 98.5887 24.75 98.598 26.3688C97.3965 25.9768 95.882 25.6171 93.7691 25.6171C88.2636 25.6171 85.1058 28.1398 85.1058 32.5443V32.6227C85.1058 36.6028 88.0887 39.2777 92.5262 39.2777C95.0258 39.2777 97.0282 38.5168 98.6256 36.9579C98.8972 38.0971 99.9881 39.1255 101.664 39.1255C103.427 39.1255 104.808 37.7604 104.808 36.0171V26.5026C104.808 23.5094 104.025 21.2034 102.474 19.6538C100.872 18.0534 98.4414 17.2417 95.2468 17.2417ZM94.3123 34.6519C92.4848 34.6519 91.3524 33.7849 91.3524 32.3874V32.309C91.3524 30.6441 92.7426 29.6941 95.1685 29.6941C96.4114 29.6941 97.6497 29.9385 98.6762 30.3812V31.2621C98.6762 33.2545 96.8809 34.6519 94.3123 34.6519ZM113.443 20.0137C115.11 18.0444 117.163 17.0851 119.704 17.0851C124.551 17.0851 129.454 20.8807 129.454 28.14V28.2184C129.454 31.5621 128.427 34.3938 126.489 36.4139C124.717 38.2633 122.309 39.2779 119.704 39.2779C117.195 39.2779 115.202 38.4201 113.476 36.5937V42.1281C113.476 43.9083 112.03 45.3565 110.253 45.3565C108.476 45.3565 107.031 43.9083 107.031 42.1281V20.4703C107.031 18.69 108.476 17.2419 110.253 17.2419C111.878 17.2419 113.222 18.4502 113.443 20.0137ZM123.014 28.14C123.014 25.0084 120.937 22.6425 118.185 22.6425C115.414 22.6425 113.397 24.9531 113.397 28.14V28.2184C113.397 31.4053 115.409 33.7159 118.185 33.7159C120.983 33.7159 123.014 31.4053 123.014 28.2184V28.14ZM143.613 17.0851C141.072 17.0851 139.019 18.0444 137.353 20.0137C137.132 18.4502 135.788 17.2419 134.163 17.2419C132.386 17.2419 130.94 18.69 130.94 20.4703V42.1281C130.94 43.9083 132.386 45.3565 134.163 45.3565C135.939 45.3565 137.385 43.9083 137.385 42.1281V36.5937C139.111 38.4201 141.104 39.2779 143.613 39.2779C146.219 39.2779 148.626 38.2633 150.398 36.4139C152.336 34.3938 153.363 31.5621 153.363 28.2184V28.14C153.363 20.8807 148.46 17.0851 143.613 17.0851ZM142.094 22.6425C144.847 22.6425 146.923 25.0084 146.923 28.14V28.2184C146.923 31.4053 144.893 33.7159 142.094 33.7159C139.318 33.7159 137.307 31.4053 137.307 28.2184V28.14C137.307 24.9531 139.323 22.6425 142.094 22.6425ZM167.739 19.6769C168.337 18.0811 169.405 17.2418 170.828 17.2418C172.545 17.2418 173.893 18.5562 173.889 20.2257C173.889 20.71 173.732 21.411 173.594 21.7338L166.326 39.2224C164.498 43.6545 162.592 45.2272 159.043 45.2272C157.791 45.2272 156.829 45.0612 155.724 44.6645C154.965 44.3878 153.685 43.6684 153.685 41.9619C153.685 40.2832 155.006 39.2824 156.281 39.2824C156.788 39.2824 157.092 39.37 157.336 39.453C157.837 39.6098 158.113 39.6744 158.496 39.6744C159.462 39.6744 159.867 39.5176 160.355 38.5814L160.503 38.2308L153.432 21.8168C153.271 21.411 153.1 20.7838 153.1 20.3456C153.1 18.5746 154.468 17.2371 156.281 17.2371C157.777 17.2371 158.79 18.0212 159.37 19.6354L163.628 31.1053L167.739 19.6769Z" fill="white"/>
<path d="M46.7589 14.1914V33.0554C46.7589 40.5425 40.6634 46.6126 33.1449 46.6126H31.7679L24.7359 53.6106C24.4605 53.8849 24.0795 54.0585 23.6572 54.0585C23.2671 54.0585 22.9137 53.9168 22.6428 53.6792L22.5235 53.5603L22.5189 53.5557L15.5466 46.6126H14.165C6.65113 46.6126 0.555557 40.5425 0.555557 33.0554V14.1914C0.555557 6.70428 6.65114 0.634155 14.1696 0.634155H33.1449C40.6634 0.634155 46.7589 6.70428 46.7589 14.1914Z" fill="#FFC31A"/>
<path d="M11.3131 26.7665C9.97275 26.7665 9.20882 28.2874 9.98647 29.3856C13.0102 33.6634 18.01 36.4524 23.6595 36.4524C29.3089 36.4524 34.3042 33.6588 37.3279 29.3856C38.1055 28.2874 37.3416 26.7665 36.0013 26.7665H11.3131Z" fill="white"/>
<path d="M19.1629 20.2927H11.0753V16.2308C11.0753 13.9885 12.8867 12.1689 15.1191 12.1689C17.3514 12.1689 19.1629 13.9885 19.1629 16.2308V20.2927Z" fill="white"/>
<path d="M36.244 20.2927H28.1564V16.2308C28.1564 13.9885 29.9679 12.1689 32.2002 12.1689C34.4325 12.1689 36.244 13.9885 36.244 16.2308V20.2927Z" fill="white"/>
</svg>
